<?xml version="1.0" encoding="UTF-8" standalone="no"?>
<!-- Created with Inkscape (http://www.inkscape.org/) -->

<svg
   xmlns:dc="http://purl.org/dc/elements/1.1/"
   xmlns:cc="http://creativecommons.org/ns#"
   xmlns:rdf="http://www.w3.org/1999/02/22-rdf-syntax-ns#"
   xmlns:svg="http://www.w3.org/2000/svg"
   xmlns="http://www.w3.org/2000/svg"
   xmlns:sodipodi="http://sodipodi.sourceforge.net/DTD/sodipodi-0.dtd"
   xmlns:inkscape="http://www.inkscape.org/namespaces/inkscape"
   width="136mm"
   height="36mm"
   viewBox="0 0 481.88955 127.55896"
   id="svg2"
   version="1.1"
   inkscape:version="0.91 r13725"
   sodipodi:docname="mount.svg">
  <defs
     id="defs4" />
  <sodipodi:namedview
     id="base"
     pagecolor="#ffffff"
     bordercolor="#666666"
     borderopacity="1.0"
     inkscape:pageopacity="0.0"
     inkscape:pageshadow="2"
     inkscape:zoom="1.4648618"
     inkscape:cx="314.5534"
     inkscape:cy="174.93157"
     inkscape:document-units="px"
     inkscape:current-layer="layer1"
     showgrid="false"
     inkscape:window-width="1366"
     inkscape:window-height="706"
     inkscape:window-x="-8"
     inkscape:window-y="-8"
     inkscape:window-maximized="1" />
  <metadata
     id="metadata7">
    <rdf:RDF>
      <cc:Work
         rdf:about="">
        <dc:format>image/svg+xml</dc:format>
        <dc:type
           rdf:resource="http://purl.org/dc/dcmitype/StillImage" />
        <dc:title></dc:title>
      </cc:Work>
    </rdf:RDF>
  </metadata>
  <g
     inkscape:label="Layer 1"
     inkscape:groupmode="layer"
     id="layer1"
     transform="translate(0,-924.80332)">
    <path
       style="opacity:1;fill:#000000;fill-opacity:1;stroke:#000000;stroke-width:2.24242425;stroke-miterlimit:4;stroke-dasharray:none;stroke-opacity:1"
       d=""
       id="path3372"
       inkscape:connector-curvature="0" />
    <path
       style="opacity:1;fill:#000000;fill-opacity:1;stroke:#000000;stroke-width:0.73660147;stroke-miterlimit:4;stroke-dasharray:none;stroke-opacity:1"
       d=""
       id="path3374"
       inkscape:connector-curvature="0" />
    <path
       style="opacity:1;fill:#000000;fill-opacity:1;stroke:#000000;stroke-width:0.17113784;stroke-miterlimit:4;stroke-dasharray:none;stroke-opacity:1"
       d=""
       id="path3388"
       inkscape:connector-curvature="0" />
    <g
       id="g3346"
       transform="translate(-73.044434,272.38054)">
      <path
         inkscape:connector-curvature="0"
         id="path3368"
         d="m 488.7287,746.2637 60.01931,20.57805 -66.02124,-39.44126 -28.29482,18.0058 -22.29289,-37.72643 -18.86321,28.29482 -57.44706,-77.16769 -76.31027,69.45092 -43.72836,-35.15417 -63.44899,49.73029 -6.00193,-12.86128 -85.741876,40.29868 c 78.025106,-27.4374 78.882526,-27.4374 78.882526,-27.4374 l 0,12.86128 77.16769,-38.58384 48.01545,39.44126 -7.71677,-18.86321 44.58578,14.57612 c 24.00772,-60.87674 37.72642,-66.87867 37.72642,-66.87867 48.87287,64.30641 72.02318,68.5935 72.02318,68.5935 l 8.57419,-12.00386 28.29482,18.00579 z"
         style="fill:none;fill-rule:evenodd;stroke:#000000;stroke-width:1px;stroke-linecap:butt;stroke-linejoin:miter;stroke-opacity:1" />
      <path
         inkscape:connector-curvature="0"
         id="path3370"
         d="m 513.33558,753.75823 c -12.73267,-4.43489 -23.64547,-8.06763 -24.25067,-8.07278 -0.60519,-0.005 -5.15091,2.70829 -10.10159,6.02984 -4.95069,3.32154 -9.49198,6.22748 -10.09176,6.45764 -0.59978,0.23015 -7.1846,-3.45207 -14.63291,-8.18273 -7.44832,-4.73065 -13.89267,-8.60119 -14.32077,-8.60119 -0.42811,0 -2.58255,2.50795 -4.78765,5.57323 -2.2051,3.06527 -4.33794,5.57322 -4.73963,5.57322 -1.5323,0 -9.0382,-4.26558 -14.20748,-8.07406 -13.57634,-10.00241 -33.22089,-30.26919 -49.27848,-50.83935 -3.78796,-4.85247 -7.37759,-8.82267 -7.97695,-8.82267 -2.02754,0 -10.26987,10.12702 -15.80478,19.41871 -5.39814,9.06207 -15.76842,30.64802 -19.8142,41.24366 -1.12542,2.94738 -2.29121,5.35887 -2.59064,5.35887 -0.29945,0 -10.42967,-3.23109 -22.51161,-7.1802 -14.85638,-4.85596 -21.96717,-6.82077 -21.96717,-6.06982 0,0.61071 1.34437,4.29801 2.98749,8.19399 1.64312,3.89599 2.89709,7.15058 2.78662,7.23241 -0.11049,0.0818 -10.1757,-8.09115 -22.36715,-18.16218 -12.19144,-10.07102 -22.51434,-18.31095 -22.93976,-18.31095 -0.42543,0 -17.74868,8.4893 -38.49612,18.86512 l -37.72262,18.86512 0,-6.00384 c 0,-4.63709 -0.27937,-6.00384 -1.22723,-6.00384 -0.67498,0 -12.8896,4.06323 -27.1436,9.02939 -14.25399,4.96616 -26.21943,8.921 -26.58985,8.78854 -0.78221,-0.27972 58.37016,-28.12376 59.7252,-28.11369 0.49837,0.004 2.21272,2.70761 3.80967,6.00867 1.59695,3.30106 3.01543,6.00193 3.15218,6.00193 0.20469,0 38.18839,-29.70279 58.27131,-45.56747 l 5.26256,-4.1572 21.89665,17.6339 21.89664,17.6339 37.92811,-34.57073 c 20.86046,-19.0139 38.02991,-34.57073 38.15434,-34.57073 0.12442,0 12.99062,17.16981 28.59155,38.15514 15.60092,20.98532 28.65206,38.24259 29.00252,38.34949 0.35046,0.1069 4.6885,-5.95724 9.6401,-13.47587 7.97034,-12.10239 9.13057,-13.50141 10.11607,-12.19823 0.61224,0.80961 5.57733,9.09232 11.03353,18.40604 5.45619,9.31371 10.04436,16.93402 10.19591,16.93402 0.15157,0 6.61351,-4.06657 14.35989,-9.03682 l 14.08431,-9.03682 26.90914,16.00172 c 26.36366,15.67734 29.39214,17.58166 27.72368,17.43275 -0.448,-0.0399 -11.23218,-3.70123 -23.96485,-8.13613 z"
         style="opacity:1;fill:#000000;fill-opacity:1;stroke:#000000;stroke-width:3.17244959;stroke-miterlimit:4;stroke-dasharray:none;stroke-opacity:1" />
      <path
         inkscape:connector-curvature="0"
         id="path3378"
         d="m 541.15157,763.66456 c -1.17196,-0.40747 -2.15222,-0.76223 -2.17836,-0.78838 -0.0261,-0.0261 0.003,-0.10809 0.0642,-0.1821 0.0614,-0.074 0.14616,-0.29725 0.1883,-0.49607 l 0.0766,-0.3615 2.08955,1.24853 c 1.14925,0.68669 2.10821,1.26705 2.13101,1.28968 0.13217,0.13122 -0.47003,-0.0491 -2.37129,-0.71016 z"
         style="opacity:1;fill:#000000;fill-opacity:1;stroke:#000000;stroke-width:0.3681592;stroke-miterlimit:4;stroke-dasharray:none;stroke-opacity:1" />
      <path
         inkscape:connector-curvature="0"
         id="path3380"
         d="m 543.03364,765.35895 c -2.92786,-1.00801 -5.57451,-1.87966 -5.88144,-1.937 -0.30693,-0.0573 -2.74723,-0.83704 -5.42289,-1.73268 -4.91787,-1.6462 -7.58449,-2.56032 -22.1988,-7.60978 -8.4878,-2.93267 -17.42751,-5.93494 -19.28989,-6.47823 l -1.10149,-0.32132 -0.54031,0.27244 c -0.76165,0.38404 -4.15209,2.42799 -5.97254,3.6006 -0.84312,0.54307 -1.58891,1.02069 -1.65732,1.06138 -0.0992,0.059 -0.12438,-2.4006 -0.12438,-12.16444 l 0,-12.23841 0.8492,-0.55354 c 0.46706,-0.30444 0.88872,-0.55353 0.93703,-0.55353 0.10137,0 32.64582,19.33866 42.19387,25.07257 6.40112,3.84407 9.87258,5.97191 12.0398,7.37981 0.62936,0.40884 3.59578,2.20809 6.59204,3.99832 2.99627,1.79023 5.44777,3.27489 5.44777,3.29925 0,0.15131 -0.3539,0.74667 -0.44132,0.74243 -0.0583,-0.003 -2.50147,-0.82986 -5.42933,-1.83787 z m 1.10719,-0.75039 c -0.19321,-0.1178 -0.40428,-0.17618 -0.49751,-0.1376 -0.12316,0.051 -0.0786,0.0982 0.18634,0.19739 0.53062,0.19869 0.68614,0.1688 0.31117,-0.0598 z"
         style="opacity:1;fill:#000000;fill-opacity:1;stroke:#000000;stroke-width:0.3681592;stroke-miterlimit:4;stroke-dasharray:none;stroke-opacity:1" />
      <path
         inkscape:connector-curvature="0"
         id="path3382"
         d="m 542.57669,765.35065 c -3.1163,-1.0554 -7.5,-2.51433 -9.74155,-3.24206 -2.24155,-0.72774 -9.98012,-3.35406 -17.19682,-5.83628 -7.2167,-2.48222 -16.10437,-5.5048 -19.75038,-6.71686 l -6.62908,-2.20373 -1.05296,0.55129 c -0.57913,0.30321 -2.41454,1.39535 -4.07871,2.42696 -1.66416,1.03162 -3.05509,1.87567 -3.091,1.87567 -0.0359,0 -1.88238,1.19062 -4.10334,2.64581 -4.46751,2.92718 -8.16115,5.26091 -8.58234,5.42254 -0.15078,0.0579 -5.63135,-3.23884 -12.17905,-7.32599 -12.13419,-7.57431 -15.61417,-9.68868 -15.94628,-9.68868 -0.33245,0 -1.54368,1.48608 -5.13934,6.3056 -1.94014,2.60051 -3.54945,4.76156 -3.57625,4.80233 -0.16198,0.24657 -3.14288,-0.85011 -5.43389,-1.99915 -15.02322,-7.53479 -36.29364,-27.75708 -58.79841,-55.90101 -5.62703,-7.03703 -8.08008,-9.86781 -8.5511,-9.86781 -0.78504,0 -5.76891,5.78865 -9.46146,10.98928 -4.06559,5.726 -6.71145,10.32458 -11.86463,20.62106 -5.1106,10.2114 -8.8054,18.25744 -12.29188,26.76759 -0.97921,2.39015 -2.14803,5.12324 -2.59738,6.07354 -0.80016,1.69217 -0.8282,1.72402 -1.35967,1.54444 -0.29847,-0.10086 -3.31603,-1.06928 -6.70569,-2.15206 -3.38966,-1.08278 -10.45726,-3.35857 -15.70577,-5.05732 -13.4779,-4.36229 -20.03233,-6.3155 -20.2988,-6.04902 -0.0655,0.0655 1.06389,3.09956 2.50967,6.74244 1.44577,3.64289 2.94212,7.41422 3.32521,8.38074 0.62829,1.58512 0.66643,1.78742 0.38925,2.0646 -0.27718,0.27717 -0.45006,0.1915 -1.76442,-0.87431 -0.80142,-0.64988 -2.57542,-2.06725 -3.94222,-3.1497 -2.71599,-2.15095 -11.34748,-9.19859 -22.66402,-18.50523 -7.82145,-6.4323 -15.40932,-12.55426 -18.04205,-14.55646 l -1.64047,-1.24759 -0.84462,0.37416 c -2.22224,0.98443 -12.40655,6.00724 -31.61491,15.59221 -11.56581,5.77132 -21.07128,10.49332 -21.12326,10.49332 -0.052,0 -0.0945,-2.4447 -0.0945,-5.43267 l 0,-5.43268 2.5348,-1.96447 c 5.54218,-4.29521 46.17494,-36.18198 49.58389,-38.91121 l 0.72703,-0.58207 20.44593,16.45734 c 11.24526,9.05153 21.07173,16.97232 21.83659,17.60173 1.35415,1.11434 1.40113,1.13506 1.78927,0.78905 0.78614,-0.70082 11.79842,-10.70895 15.11104,-13.73315 1.85924,-1.69736 6.77972,-6.18016 10.9344,-9.96178 4.15467,-3.78163 13.26941,-12.07934 20.25498,-18.43937 l 12.70102,-11.56368 14.29316,0 14.29317,0 5.52177,7.40557 c 3.03697,4.07306 8.28414,11.11829 11.66037,15.65606 9.10111,12.23222 19.90278,26.6251 24.52789,32.6826 l 4.08233,5.34662 0.56566,-0.67465 c 0.70108,-0.83611 3.82746,-5.36621 7.32581,-10.61501 1.45755,-2.18688 4.53757,-6.75906 6.84447,-10.16042 l 4.19436,-6.18427 1.10141,1.81052 c 0.60578,0.99578 2.2455,3.68924 3.64381,5.98546 1.39833,2.29623 5.02344,8.37973 8.05583,13.51889 5.07129,8.59465 9.49366,16.00888 9.64445,16.16919 0.034,0.0362 0.27084,-0.0458 0.52625,-0.18226 1.24888,-0.66719 24.28964,-15.45611 26.48264,-16.99813 l 0.96861,-0.68108 0.62185,0.37201 c 0.34203,0.2046 3.84252,2.27485 7.7789,4.60055 12.73388,7.52344 37.96489,22.60362 41.79748,24.9817 2.05115,1.27272 6.52509,4.00814 9.94209,6.07872 3.41699,2.07058 6.21272,3.87338 6.21272,4.00623 0,0.25635 -0.40264,0.73416 -0.58648,0.69596 -0.0601,-0.0125 -2.65905,-0.88623 -5.77535,-1.94162 z M 283.32985,754.38821 c -0.17809,-0.33277 -0.28781,-0.3807 -0.46343,-0.20246 -0.1747,0.17732 -0.13786,0.30161 0.15301,0.51631 0.48896,0.36091 0.60743,0.24112 0.31042,-0.31385 z M 432.19321,709.3357 c 0.35696,-0.0956 0.4039,-0.17833 0.22416,-0.3949 -0.30547,-0.36807 -0.43561,-0.34599 -0.72893,0.12369 -0.26575,0.42552 -0.20099,0.46031 0.50477,0.27121 z"
         style="opacity:1;fill:#000000;fill-opacity:1;stroke:#000000;stroke-width:0.73558646;stroke-miterlimit:4;stroke-dasharray:none;stroke-opacity:1" />
      <path
         inkscape:connector-curvature="0"
         id="path3384"
         d="m 93.162869,765.05149 c 0.04556,-0.0421 2.475978,-1.19748 5.400928,-2.56742 4.186233,-1.96068 5.318093,-2.41827 5.318093,-2.15002 0,0.18743 0.10586,0.44664 0.23525,0.57603 0.12939,0.12939 0.1772,0.29332 0.10624,0.36428 -0.1543,0.1543 -10.662054,3.85375 -10.94603,3.85375 -0.108525,0 -0.160041,-0.0345 -0.114481,-0.0766 z"
         style="opacity:1;fill:#000000;fill-opacity:1;stroke:#000000;stroke-width:0.73558646;stroke-miterlimit:4;stroke-dasharray:none;stroke-opacity:1" />
      <path
         inkscape:connector-curvature="0"
         id="path3386"
         d="m 90.572733,766.17354 c 0.03168,-0.0317 2.182142,-1.04352 2.189066,-1.03 0.122272,0.23874 0.117755,0.2567 -0.08213,0.32654 -0.106702,0.0373 -0.614904,0.21577 -1.129338,0.39663 -0.895377,0.31479 -1.026806,0.35604 -0.977601,0.30683 z"
         style="opacity:1;fill:#000000;fill-opacity:1;stroke:#000000;stroke-width:0.17113784;stroke-miterlimit:4;stroke-dasharray:none;stroke-opacity:1" />
      <path
         inkscape:connector-curvature="0"
         id="path3390"
         d="m 80.72721,770.61957 c -0.02167,-0.0511 -0.103541,-0.24919 -0.181938,-0.44012 l -0.142539,-0.34713 0.102618,-0.0531 c 0.05644,-0.0292 1.034306,-0.49076 2.173037,-1.02567 12.674897,-5.95396 27.781542,-13.05863 28.353582,-13.33472 0.39549,-0.19087 0.98686,-0.47765 1.31416,-0.63729 1.81925,-0.88732 4.75322,-2.30428 6.96752,-3.36497 l 0.69427,-0.33256 0.006,3.00038 c 0.003,1.65022 -0.003,3.00933 -0.0136,3.02025 -0.0109,0.0109 -2.01102,0.68291 -4.44468,1.4933 -2.43365,0.81039 -5.42903,1.82484 -6.65641,2.25433 -1.22737,0.42949 -5.40044,1.89308 -9.273491,3.25242 -3.873047,1.35933 -7.76717,2.72599 -8.653607,3.03701 -0.886437,0.31102 -3.173816,1.11465 -5.083065,1.78585 -1.909249,0.6712 -3.83289,1.34741 -4.274759,1.50269 -0.441869,0.15527 -0.81344,0.28231 -0.825714,0.28231 -0.01227,0 -0.04004,-0.0418 -0.06171,-0.093 z m 9.4394,-4.22697 c 0.197744,-0.0688 0.361411,-0.12647 0.363705,-0.12804 0.0023,-0.002 -0.01072,-0.0232 -0.02892,-0.0481 -0.03122,-0.0427 -0.05324,-0.0359 -0.388501,0.12013 -0.195475,0.091 -0.366567,0.17714 -0.380204,0.19151 -0.01718,0.0181 -0.0096,0.0205 0.02479,0.008 0.02728,-0.01 0.211381,-0.0745 0.409125,-0.1434 z m 2.789487,-0.98627 c 0.0084,-0.0136 0.0042,-0.0248 -0.0095,-0.0248 -0.01364,0 -0.03169,0.0112 -0.04012,0.0248 -0.0084,0.0136 -0.0042,0.0248 0.0095,0.0248 0.01364,0 0.03169,-0.0112 0.04012,-0.0248 z m 11.021573,-5.52938 c 0,-0.0579 -0.003,-0.0586 -0.0848,-0.0212 -0.0738,0.0336 -0.061,0.0708 0.0243,0.0708 0.044,0 0.0605,-0.0136 0.0605,-0.0496 z"
         style="opacity:1;fill:#000000;fill-opacity:1;stroke:#000000;stroke-width:0.09174312;stroke-miterlimit:4;stroke-dasharray:none;stroke-opacity:1" />
      <path
         inkscape:connector-curvature="0"
         id="path3392"
         d="m 80.686565,770.60717 c -0.139897,-0.31864 -0.322905,-0.78677 -0.311884,-0.79779 0.01875,-0.0187 2.109518,-1.00356 11.242462,-5.29551 13.048577,-6.13208 19.118897,-8.99001 19.935527,-9.38573 0.24548,-0.11895 0.62485,-0.30268 0.84305,-0.40829 0.2182,-0.10561 0.95462,-0.46277 1.6365,-0.79368 2.2166,-1.07573 5.95798,-2.8764 5.97651,-2.8764 0.006,0 0.0115,1.36964 0.0113,3.04364 l -2.5e-4,3.04364 -0.68782,0.23248 c -0.37831,0.12787 -2.13279,0.71545 -3.89884,1.30574 -2.69447,0.90061 -4.71374,1.58392 -6.37243,2.1564 -0.4782,0.16504 -12.147974,4.25837 -15.410364,5.40538 -0.518224,0.1822 -2.917183,1.02496 -5.331019,1.87281 -2.413835,0.84784 -4.801636,1.68661 -5.306223,1.86393 -1.854491,0.6517 -2.180365,0.76356 -2.224419,0.76356 -0.03048,0 -0.06341,-0.042 -0.10214,-0.13018 z m 9.765193,-4.3578 c 0.01939,-0.0314 -0.01343,-0.0314 -0.06199,0 -0.03205,0.0207 -0.0314,0.0241 0.0047,0.0244 0.02306,2e-4 0.04883,-0.0108 0.05725,-0.0244 z"
         style="opacity:1;fill:#000000;fill-opacity:1;stroke:#000000;stroke-width:0.09174312;stroke-miterlimit:4;stroke-dasharray:none;stroke-opacity:1" />
    </g>
    <path
       style="opacity:1;fill:#000000;fill-opacity:1;stroke:#000000;stroke-width:1.55505502;stroke-miterlimit:4;stroke-dasharray:none;stroke-opacity:1"
       d=""
       id="path3396"
       inkscape:connector-curvature="0" />
  </g>
</svg>
